Ghoul (2012) DVDRip

Screens:
 
http://img855.imageshack.us/img855/2569/vlcsnap2013010503h06m06.png
 
http://img822.imageshack.us/img822/5696/vlcsnap2013010503h06m17.png
 
http://img534.imageshack.us/img534/4427/vlcsnap2013010503h07m19.png

[General]
Format: AVI
Format/Info: Audio Video Interleave
File size: 700 MiB
Duration: 1h 21mn
Overall bit rate: 1 202 Kbps

[Video]
Format: xvid
Codec ID: xvid
Duration: 1h 21mn
Bit rate: 1 061 Kbps
Width: 640 pixels
Height: 356 pixels
Display aspect ratio: 16:9
Frame rate: 23.976 fps
Bits/(Pixel*Frame): 0.194
Stream size: 618 MiB (88%)

[Audio]
Format: MPEG Audio
Format version: Version 1
Format profile: Layer 3
Mode: Joint stereo
Mode extension: MS Stereo
Codec ID: 55
Codec ID/Hint: MP3
Duration: 1h 21mn
Bit rate mode: Constant
Bit rate: 128 Kbps
Channel(s): 2 channels
Sampling rate: 48.0 KHz
Compression mode: Lossy
Stream size: 74.5 MiB (11%)
Alignment: Aligned on interleaves
Interleave, duration: 24 ms (0.58 video frame)